<svg viewBox="2997.1 4530.2684 3221.836 584.038" xmlns:xlink="http://www.w3.org/1999/xlink" style="max-height: 500px" version="1.1" xml:space="preserve" xmlns="http://www.w3.org/2000/svg" width="3221.836" height="584.038">
 <defs>
  <style type="text/css">
   
    .fil1 {fill:#030303}
    .fil0 {fill:white}
   
  </style>
 </defs>
 <g id="Layer_x0020_1">
  <metadata id="CorelCorpID_0Corel-Layer"/>
  <image xlink:href="Untitled-1_Images/Untitled-1_ImgID1.png" height="3208.98" width="3208.98" y="3479.01" x="2997.11" id="REGISTRATIONS_x0020__x0020_COMPLIANCES_x0020__x0020_CONSULTING.jpg"/>
 </g>
 <g id="Layer_x0020_1_0">
  <metadata id="CorelCorpID_1Corel-Layer"/>
  <polygon points="2997.11,6688 6206.09,6688 6206.09,3479.01 2997.11,3479.01" class="fil0"/>
  <path d="M4736.28 4717.68l0.02 -1.61c0.14,-10.24 -1.38,-8.66 -11.01,-8.41 -7.04,0.19 -13.94,0.28 -21,0.26 -12.27,-0.03 -28.09,-0.88 -39.91,0.15 -2.33,111.92 -0.42,249.2 -0.43,362.59l-0.01 18.89 72.35 -0.08 0.04 -132.41c6.04,0.83 9.41,5.4 13.97,9.79 9.59,9.23 37.66,23.26 53.35,23.93 32.06,1.38 55.23,3.65 82.97,-7.26 8.43,-3.31 10.81,-1.89 26.13,-10.93l15.41 -10.2c20.37,-16.75 34.04,-35.82 42.11,-60.25 6,-18.17 13.04,-60.94 6.77,-80.43 -8.62,-26.85 -5.32,-30.68 -20.44,-56.47 -12.35,-21.07 -39.87,-42.56 -63.05,-52.31 -30.4,-12.8 -70.07,-13.74 -102.09,-6 -9.98,2.41 -16.69,7.08 -25.08,11.8 -31.09,17.51 -30.67,37.3 -30.15,-1.04z" class="fil1"/>
  <path d="M3584.39 4842.83c-0,15.09 -0.41,16.19 2.65,31.08 4.03,19.65 1.48,14.94 11.81,39.59 13.21,31.52 41.04,55.04 74.07,68.87 5.12,2.14 4.19,2.7 8.5,3.91l21.57 4.6c44.45,3.5 78.93,0 109.13,-34.24 2.82,-3.2 3.32,-4.31 9.21,-4.34l0.54 34.2c8.09,0.31 64.59,1.63 67.28,-0.95 2.19,-3.59 0.72,0.85 1.45,-4.81l-0.13 -256.63c-0.09,-23.7 2.47,-17.13 -38.13,-17.16l-32.94 -0.05 -0.91 28.38c-10.93,0.13 -14.5,-19.51 -69.54,-32.73l-44.33 -0.61c-12.32,0.7 -37.95,11.43 -50.55,17.98 -19.33,10.05 -40.87,33.51 -51.95,52.21l-2.07 4.31c-0.16,0.36 -0.35,0.78 -0.51,1.13 -1.28,2.86 -1.3,3.09 -2.82,6.94 -7.99,20.23 -12.3,31.5 -12.3,58.33z" class="fil1"/>
  <path d="M5509.26 4952.27c1.09,8.82 0.24,16.81 0.31,25.54 0.1,13.04 4.37,9.08 17.82,9.06l49.37 -0.11c2.94,-49.65 0.81,-168.2 0.9,-220.94l-0.2 -57.94 -51.69 -0.22c-18.88,-0.39 -15.94,-1.45 -16.05,16.44l-0.34 15.61c-8.65,0.46 -10.02,-3.32 -18.99,-12.27 -3.4,-3.39 -5.17,-3.93 -9.4,-6.6 -3.78,-2.39 -5.54,-4.1 -9.8,-6.19 -24.35,-11.93 -46.19,-15.22 -75.38,-12.68l-38.94 10.49c-0.42,0.21 -1.57,0.89 -1.99,1.11l-9.58 4.89c-13.73,6.57 -37.79,27.94 -46.22,42.17 -1.24,2.1 -2.6,3.59 -3.98,5.54 -18.12,25.65 -24.11,69.78 -20.15,101.53 2.17,17.33 4.28,26.69 10.61,43.61l3.46 8.07c9.93,20.76 31.99,45.95 53.98,56.54 29.11,14.03 35.61,16.58 72.09,16.26 15.08,-0.13 35.73,-0.7 48.69,-7.64 1.86,-1 0.19,-0.18 3,-1.72l30.62 -20.74c7.12,-7.44 0.86,-9.33 11.87,-9.8z" class="fil1"/>
  <path d="M6117.31 4841.22c-0,-5.33 0.27,-12.59 -0.37,-17.74 -3.72,-29.84 -23.67,-67.63 -46.89,-85.4 -17.99,-13.76 -39.44,-26.96 -61.6,-31.41 -6.66,-1.33 -10.82,-0.59 -17.15,-2.43 -8.04,-2.33 -43.75,-3.02 -54.79,-1.44 -7.7,1.1 -6.41,2.69 -16.02,3.23 -12.91,0.73 -18.39,4.19 -28.97,8.25 -35.54,13.64 -61.23,38.98 -77.8,73.03 -4.81,9.88 -5.22,17.95 -9.04,28.01 -3.56,9.37 -1.96,25.78 -1.87,37.13 0.26,30.36 0.34,16.64 4.98,40.06l8.85 23.61c0.17,0.31 0.39,0.73 0.56,1.04 17.09,31.04 46.77,56.54 80.68,65.73 9.1,2.46 19.75,6.58 29.06,7.63 12.89,1.46 62.79,2.46 73.28,-1.94 8.66,-3.62 33.53,-2.09 65.11,-28.22 17.65,-14.6 22.13,-18.19 35.44,-39.96l10.97 -26.04c1.71,-4.49 0.84,-3.1 1.84,-7.94 5.66,-27.37 3.77,-12.8 3.74,-45.2z" class="fil1"/>
  <path d="M3168.67 4931.21l-30.85 -6.13c-8.79,-4.19 -20.74,-5.96 -27.46,-9.46l-19.98 -7.4c-17.6,-7.48 -17.8,-16.79 -26.74,4.57l-11.28 29.55c-0.52,2.45 -0.11,1.44 -0.95,4.17 -0.24,0.79 -1.39,3.45 -1.43,3.55 -1.67,5.09 -1.3,3.45 -0.82,9.31 83.11,22.52 161.44,56.88 246.47,19.53 19.37,-7.04 41.95,-25.2 55.2,-40.75 8.77,-10.29 14.57,-20.48 17.14,-34.17 1.37,-7.3 3.08,-6.06 3.9,-13.22 5.77,-50.33 -8.95,-90.41 -51.78,-117.63l-16.67 -8.94c-0.37,-0.16 -0.78,-0.35 -1.14,-0.52 -26.46,-12.16 -28.24,-11.76 -55.09,-21.43l-26.79 -7.22c-8.4,-1.83 -15.95,-5.59 -25.22,-8.31 -18.36,-5.37 -35.35,-10.65 -47.58,-21.52 -7.46,-6.63 -10.34,-10.24 -15.13,-18.56 -9.04,-15.68 -3.4,-38.75 10.33,-51.15 22.98,-20.75 51.79,-19.42 83.76,-18.74 16.82,0.35 28.87,2.5 44.29,7.05 5.43,1.6 8.37,1.03 14.27,3.37 4.7,1.87 8.02,2.1 12.24,3.82 6.64,2.71 16.29,10.73 22.84,11.73 9.24,1.41 9.08,-8.78 10.87,-14.26l5.85 -18.36c1.93,-4.33 2.1,-8.26 4.7,-13.17l4.34 -12.44 -10.23 -4.79c-16.82,-9.19 -30.52,-10.97 -47.48,-16.75 -22.2,-7.57 -80.11,-10.54 -101.81,-7.41 -6.43,0.93 -25.46,1.21 -29.69,2.64 -23.26,7.88 -44.77,11.29 -65.18,30.88 -11.16,10.72 -21.58,20.33 -29.35,34.83 -12.96,24.18 -17.76,64.81 -4.31,92.54l20.29 29.22c8.1,8.72 20.64,17.69 32.06,22.78l11.59 5.9c1.88,1.02 4.03,2.31 5.03,2.81 14.89,7.5 30.65,13.69 46.78,17.85l62.67 19c11.47,4.02 33.76,13.11 42.28,21.58 12.63,12.55 19.77,20.52 16.79,47.35 -5.81,52.29 -87.62,48.42 -126.71,48.27z" class="fil1"/>
  <path d="M5085.19 4986.2c2.25,-15.87 0.39,-51.74 0.2,-69.59 -0.17,-15.28 2.05,-16.95 10.69,-25.33 5.1,-4.95 11.07,-13.29 17.61,-18.15l23.57 27.65c2.33,2.41 4.04,4.41 6.2,6.7 2.33,2.46 4.31,4.19 6.12,6.67 4.69,6.4 6.94,9.94 11.85,15.54l48.26 56.96c13.15,0.6 83.31,2.31 89.65,-1.11l0.2 -1.46c-1.33,-5.36 -2.84,-4.62 -5.62,-7.21 -16.25,-15.13 -12.17,-12.56 -24.84,-28.15 -8.73,-10.74 -21.7,-21.19 -33.77,-36.89l-58.25 -65.31c-3.91,-3.81 -6.33,-4.57 -7.24,-10.12 1.35,-2.75 54.71,-55.97 61.75,-63.14 11.2,-11.4 18.48,-22.33 29.87,-32.72 6,-5.47 9.56,-9.3 15.9,-16.16 3.5,-3.78 4.37,-4.56 8.39,-7.88 3.75,-3.11 4.71,-4.81 5.27,-9.47 -8.37,-1.12 -75.05,-1.49 -82.78,-0.32 -6.74,1.02 -16.61,14.33 -22.02,19.57l-15.7 16.31c-19.81,25.09 -28.07,29.68 -44.87,49.85l-39.67 42.58c-3.94,-17.71 1.96,-247.04 -1.84,-269.33l-71.29 -0.5c-2.26,21.58 -0.27,355.16 -0.34,401.18 -0.02,16.46 -4.67,20.82 10.94,20.61 16.49,-0.23 47.17,1.69 61.75,-0.79z" class="fil1"/>
  <path d="M4624.53 4709.66c-4.7,-2.87 -56.42,-2.53 -64.78,-1.93 -11.7,0.85 -8.68,4.92 -8.2,10.11l0.52 33.53c0.22,36.29 3.7,118.74 -3.28,145.85 -6.16,23.93 -21.24,33.92 -45.02,34.69 -17.02,0.55 -28.45,1.99 -41.59,-4.35 -8.23,-3.97 -19.98,-13.09 -23.97,-22.08 -10.01,-22.57 -8.06,-53.3 -8.1,-83.51 -0.04,-31 -0.15,-62.06 0.02,-93.06 0.15,-27.18 2.98,-21.36 -24.28,-21.12 -60.84,0.53 -47.03,-19.26 -46.63,93.33 0.08,21.67 -2.78,72.61 1.06,90.53 3.51,16.37 1.45,28.1 16.81,52.17 12.96,20.31 37.43,37.7 60.96,42.27l19.07 4.59c16.03,2.03 68.73,1.11 79.17,-2.62 5.52,-1.97 11.73,-2.03 18.48,-4.28 2.69,-0.9 6.03,-1.44 8.74,-2.63 26.78,-11.72 54.06,-38.97 57.73,-69.37 2.06,-17.01 3.5,-9.73 4.38,-19.24 1.41,-15.24 1.91,-177.37 -1.09,-182.87z" class="fil1"/>
  <path d="M3418.66 4621.41l-0.42 85.83c-5.28,-0.13 -46.47,-1.42 -48.76,0.81 -2.85,2.77 -1.6,50.54 -1.59,57.33 62.17,2.43 51.09,-12.93 50.94,50.17 -0.09,35.84 -4.73,104.59 10.37,132.63 2.17,4.02 3.8,7.99 6.47,11.3 2.88,3.57 6.49,6.52 9.79,9.41 5.12,4.48 5.37,3.78 10.48,7.1 14.45,9.39 23.48,10.25 40.06,14.75l54.77 0.14c51.92,-12.63 44.73,-7.41 21.29,-55.45 -0.51,-1.39 -3,-9.85 -4.65,-6.89l-5.21 -0.72c-5.22,0.7 -1.93,1.25 -7.24,2.69 -13.67,3.69 -47.33,4.28 -57.43,-18.11 -8.04,-17.81 -4.76,-112.92 -4.87,-146.26l82.89 -0.54c0.9,-74.28 5.88,-58.47 -36.13,-58.63l-45.23 0.19c-0.77,-14.41 2.36,-93.38 -2.9,-105.52 -2.91,-0.19 -15.87,1.69 -18.96,2.86l-6.73 2.95c-8.92,2.83 -21.35,8.3 -28.92,9.32l-18.03 4.64z" class="fil1"/>
  <path d="M4171.67 4621.57l-0.57 75.25c0.02,20.55 -3.17,7.73 -45.73,11.45 -1.46,9.09 -1.85,50.4 0.62,58.11l44.52 0.14c0.31,20.44 -0.9,152.4 0.85,158.92 0.66,2.46 1.17,2.31 2.29,5.31 1.22,3.28 0.96,4.09 2,7.58 6.41,21.56 22.63,37.1 43.48,44.88 30.66,11.45 45.89,8.41 80.85,7.7 63.95,-1.3 41.57,-17.72 29.17,-52.39 -6.8,-19.03 -16.69,-7.11 -38.83,-6.94 -10.52,0.08 -26.75,-0.89 -33.56,-5.55 -0.97,-0.67 -6.66,-8.88 -7.73,-11.24 -9.44,-20.69 -5.83,-73.8 -5.72,-100.85l0.06 -33.69c0.04,-18.06 -4.21,-14.44 40.53,-14.42l42.78 -0.48c0.26,-11.14 2.44,-54.11 -1.07,-57.26 -3.42,-3.07 -67.46,-1.05 -81.94,-0.91l-0.33 -90.67c0.1,-6.46 1.42,-12.22 -3.21,-13.78l-33.81 8.71c-10.56,3.23 -26.84,9.26 -34.65,10.12z" class="fil1"/>
  <path d="M4003.12 4747.19c-4.37,-7.44 -0.15,-25.83 -2.53,-39.85l-60.18 -0.6c-12.61,0.52 -8.91,3.5 -8.93,28.6l-0.23 242.46c0.04,13.14 4.97,9.06 34.97,9.06l37.96 -0.17c2.11,-36.07 -2.66,-148.39 3.62,-164.81 12.7,-33.2 14.48,-32.47 39.47,-45.54 0.29,-0.15 0.67,-0.41 0.96,-0.56l15.96 -6.23c5.47,-1.17 5.53,-1.67 10.25,-2.83 7.76,-1.9 27.36,-0.99 37.44,-0.92l0.38 -49.78c0.17,-18.21 1.33,-14.76 -33.77,-14.27 -24.4,0.34 -56.47,15.63 -68.59,38.42 -4.44,8.34 2.63,5.31 -6.8,7.02z" class="fil1"/>
  <path d="M5693.17 4747.74c-1.06,-10.42 1.98,-30.52 -2.12,-38.22 -6.79,-3.72 -58.83,-2.73 -70.04,-1.1l-0.56 277.26 72.6 0.77c0.45,-44.52 -4.82,-126.5 3.05,-163.04 1.71,-7.96 9.21,-21.69 14.18,-27.15 5.64,-6.19 11.02,-11.47 18.35,-15.67 22.32,-12.77 37.67,-17.17 64.38,-13.94l5.24 0.2c10.3,-1.56 4.87,-36.2 5.09,-54.11 0.18,-14.29 -1.66,-11.97 -15.99,-11.31 -8.7,0.41 -20.08,-0.99 -28.07,1.02 -4.69,1.18 -3.86,2.15 -9.27,3.29 -2.11,0.45 -3.75,0.41 -5.77,0.9l-15.56 6.9c-8.92,4.31 -16.34,12.3 -22.43,19.33l-8.81 12.05c-2.21,2.19 -1.18,1.99 -4.27,2.82z" class="fil1"/>
  <path d="M5941.58 4764.31c-3.22,1.52 -4.01,-0.73 -19.52,6.19l-3.28 1.56c-1.03,0.57 -5.39,3.46 -6.8,4.33 -5.95,3.65 -6.78,4.53 -11.73,9.32 -12.73,12.35 -18.3,24.75 -21.5,42.46 -2.65,14.69 -6.13,16.93 -0.63,37.87 2.57,9.79 1.48,16.15 10.72,30.89 8.22,13.12 20.61,24.99 35.19,29.39 5.52,1.67 3.28,0.55 8.13,2.78l26.78 5.36c8.7,0.21 12.86,-1.43 20.75,-2.4 27.67,-3.38 47.43,-21.05 58.65,-46.64 3.43,-7.83 1.94,-7.52 4.65,-16.06 6.76,-21.33 0.41,-52.35 -11.26,-68.75 -16.74,-23.53 -38.15,-37.57 -69.48,-38.47 -3.64,-0.11 -7.81,-0.32 -11.41,-0.12 -6.41,0.36 -5.15,0.36 -9.26,2.29z" class="fil0"/>
  <path d="M4741.93 4885.29c11.27,32.88 45.22,46.9 77.88,46.61 6.24,-0.06 14.86,0.39 20.79,-0.2 22.63,-2.24 51.86,-32.85 57.64,-55.11 1.11,-4.27 1.75,-4.69 2.78,-8.72 1.64,-6.39 1.65,-32.43 -0.24,-38.59l-4.82 -15.88c-16.31,-46.28 -82.03,-66.93 -121.36,-38.42 -5.83,4.22 -4.7,2.06 -12.02,8.99 -27.31,25.85 -32.61,66.39 -20.65,101.32z" class="fil0"/>
  <path d="M5410.67 4765.67c-23.38,3.7 -38.36,16.91 -49.11,33.31 -10.89,16.61 -17.04,43.74 -10.38,67.35 3.25,11.52 0.24,14.07 9.81,30.8 3.48,6.08 8.35,10.86 14.46,15.9 0.96,0.8 2.18,1.77 2.62,2.14 27.76,22.9 68.11,22.34 98.76,2.3 10.44,-6.83 18.7,-16.87 23.76,-28.02 9.58,-21.12 13.32,-37.33 6.03,-59.2 -2.42,-7.26 1.17,-4.2 -4.36,-14.95l-1.98 -4.29c-8.49,-19.02 -14.31,-26.23 -32.6,-38.29 -13.48,-8.89 -40.8,-9.6 -57.03,-7.04z" class="fil0"/>
  <path d="M3660.89 4847.65c0.06,25.02 7.91,46.93 21.68,60.63 26.77,26.61 78.22,31.44 105.49,8.35 32.84,-27.8 39.52,-51.1 30.11,-94.53l-5.8 -14.73c-22.44,-50.75 -95.86,-56.76 -130.16,-20.71 -6.42,6.74 -11.02,16.2 -15.2,24.91 -5.03,10.45 -6.15,21.76 -6.11,36.08z" class="fil0"/>
 </g>
</svg>